PathFileType	4	(X/Y/Z)	Patient4_TMGait_0pt7_02_left_45.trc.trc
DataRate	CameraRate	NumFrames	NumMarkers	Units	OrigDataRate	OrigDataStartFrame	OrigNumFrames
88.050314465409	88.050314465409	6	33	mm	88.050314465409	1	       141
Frame#	Time	Sacral			L.Shoulder			Chest			R.Shoulder			Neck			R.ASIS			L.ASIS			R.Thigh.Superior			R.Thigh.Lateral			R.Thigh.Inferior			R.Patella			L.Thigh.Superior			L.Thigh.Lateral			L.Thigh.Inferior			L.Patella			L.Shank.Superior			L.Shank.Lateral			L.Shank.Inferior			R.Shank.Superior			R.Shank.Lateral			R.Shank.Inferior			R.Heel			R.Midfoot.Superior			R.Midfoot.Lateral			R.Toe			L.Heel			L.Midfoot.Lateral			L.Midfoot.Superior			L.Toe			L.Elbow			L.Wrist			R.Elbow			R.Wrist			
		X1	Y1	Z1	X2	Y2	Z2	X3	Y3	Z3	X4	Y4	Z4	X5	Y5	Z5	X6	Y6	Z6	X7	Y7	Z7	X8	Y8	Z8	X9	Y9	Z9	X10	Y10	Z10	X11	Y11	Z11	X12	Y12	Z12	X13	Y13	Z13	X14	Y14	Z14	X15	Y15	Z15	X16	Y16	Z16	X17	Y17	Z17	X18	Y18	Z18	X19	Y19	Z19	X20	Y20	Z20	X21	Y21	Z21	X22	Y22	Z22	X23	Y23	Z23	X24	Y24	Z24	X25	Y25	Z25	X26	Y26	Z26	X27	Y27	Z27	X28	Y28	Z28	X29	Y29	Z29	X30	Y30	Z30	X31	Y31	Z31	X32	Y32	Z32	X33	Y33	Z33	

1	51.510000000000	724.205905887893	1012.086515486716	506.826976516013	906.223263034537	1426.813220736464	300.450311725890	1021.017396692179	1354.469948411812	453.967075608901	958.420722849496	1438.991452973367	631.470923925420	923.801051936258	1490.433184648984	452.279576188581	952.728299412711	944.038682583705	620.318447345806	929.234778054155	954.924188988811	346.176028151713	988.464404000177	740.495846153786	595.857455532757	902.310810033635	634.983261083309	653.188854258113	978.266139832241	580.635408658387	573.420149842594	975.831496667137	493.616571465169	578.188062979900	1022.897122726159	792.173853429284	384.371669937853	997.142561351098	664.375794231656	300.616139213860	1104.987807819254	610.233845748720	368.907982649719	1124.782523545026	517.730890595267	359.870152898540	1053.339241374638	450.347194812340	350.838114373450	909.132639610275	420.056624913531	300.236482517041	885.011780580351	292.704271039146	353.990799949593	948.618822898777	405.035344611543	585.722359348652	877.377255619655	301.036386666299	645.877437814327	921.383962275488	206.894460761746	582.361422679321	789.900361712591	41.625837047139	548.782954394495	960.542785059243	98.069941692122	589.145435738132	871.904971065811	36.128534762271	624.588574953645	1079.958539338837	46.972722456463	618.174893767934	690.278733549479	247.383555593073	389.145907901850	743.517871232313	196.116162226375	309.440731970935	848.164629104717	191.553062416805	332.207318385996	912.908612564023	71.809824433256	303.864696077083	844.041752162598	1074.644466261590	207.853510116290	1049.483463857765	914.253981077104	225.009895032928	916.383388759261	1095.895333107600	766.206786694712	1002.486101447700	847.267270314826	755.230861051748	
2	51.521357142857	723.380744300178	1012.719248357651	508.560587404432	904.259162263745	1426.698441858979	300.943446427015	1020.455322675424	1354.345772384110	453.340675760687	959.851883084322	1438.963651035053	631.480847539386	923.469490286205	1490.463361642716	452.650858553555	952.290446259107	943.808555016876	620.161528052423	927.176071847060	955.488025414738	346.238261667101	985.027210470168	739.596548616390	595.209448289581	898.312880674713	634.948073933892	653.608216879702	972.837943058694	579.728058205332	573.360588826239	969.324117211342	493.090771204660	578.240191094568	1022.709356601751	796.938135624849	385.707324435774	1001.412721429681	669.296056622097	300.504965017489	1110.035505593121	617.706504187485	369.319857986520	1132.707553911009	525.969366711217	359.707485340661	1063.541233265330	456.462408142476	350.553263227285	920.425904434462	421.202312862943	300.579258810574	901.414660125999	293.013002816119	353.997495471699	941.904692602763	404.838994686855	585.854843411234	870.309440974305	300.973529611518	646.135228569524	913.669293331129	206.647404941125	582.345022668512	781.596259393306	41.673235989405	548.803429687671	952.101533992214	97.882644840544	589.111917502666	863.499897930927	36.123628743510	624.630268552949	1071.594384330073	46.699625352052	618.211677902430	709.096169794678	239.952299619247	390.116283229200	763.716509757616	191.399131680218	309.762667521554	868.422198616324	191.072572086750	331.890739579840	937.648193585754	74.437781332060	302.488757234532	839.279028970880	1073.890157059854	212.021958086782	1024.727718128060	895.424147852151	226.528340521571	926.983990074700	1095.639738499269	767.435642265319	1027.869488784185	854.491283022596	751.847080614390	
3	51.532714285714	722.566496235970	1013.317689001107	510.251399641493	902.356172871039	1426.552907468798	301.411423711166	1019.913640476798	1354.199862778875	452.720741152240	961.255312511908	1438.917980470854	631.476980948863	923.152086924627	1490.470902249301	452.995549453008	951.864440502779	943.565162421259	619.983216851029	925.143093075074	956.012399722211	346.288623332533	981.669475040716	738.710782540483	594.551600641738	894.380876984943	634.907523643266	654.010262233827	967.485715014909	578.827720040142	573.297696409238	962.908008766216	492.566490715233	578.289488973514	1022.483055010225	801.575606503902	386.977612263135	1005.539789602505	674.121555995516	300.366337427373	1114.910079502016	625.041160331139	369.687344435110	1140.407397069477	534.075825722012	359.495380607404	1073.534418165202	462.473267155793	350.214726750026	931.528638530473	422.228397502926	300.889457576035	917.650581227506	293.235078016021	353.958527412863	935.274242581469	404.626286856247	585.970538477167	863.342220847750	300.907338504522	646.388966701787	906.051116331237	206.402818436659	582.330411072457	773.392346729243	41.719778199975	548.827476656026	943.775013729756	97.703260182145	589.081690228306	855.204180104890	36.122131125957	624.681332458717	1063.336955796481	46.424607467135	618.247003191422	727.796117004547	232.469036782666	391.051574311549	783.760607204496	186.609922364614	310.048664331580	888.509281226960	190.508178456432	331.536511933889	962.188703766227	76.984534864104	301.057761577335	834.680555480836	1073.118998992398	216.053143639882	999.998733178718	877.293232847249	228.046390646001	937.407098327114	1095.414970067026	768.612771606449	1052.940012116830	861.911870367608	748.371522464575	
4	51.544071428571	721.780923949713	1013.848672242481	511.850619762079	900.586244575751	1426.341949556521	301.819389081357	1019.421131097853	1354.002990609456	452.104959735104	962.615769999079	1438.833903999554	631.435993260913	922.877676671314	1490.428910909156	453.279883320991	951.461945086146	943.297972934265	619.775200779476	923.169447982689	956.446840966791	346.309625043661	978.437071786688	737.839548509227	593.890296606941	890.526065047223	634.857392366722	654.381275546679	962.230970244912	577.932662044247	573.240972870403	956.610697379688	492.038506507928	578.340066348318	1022.178400088097	805.943628211859	388.109055132059	1009.362117869269	678.720687915811	300.168568953302	1119.429989022488	632.060999660478	369.940724086037	1147.649912291471	541.896621714109	359.177085685083	1083.137252197957	468.256902749779	349.775999882282	942.367839721685	422.941997515156	301.094204512221	933.715685270776	293.242767161443	353.813773015966	928.736651848306	404.384069107518	586.059718827412	856.491383351762	300.839871196837	646.636489127872	898.539833333713	206.164899988400	582.321697116620	765.294328040122	41.768078032515	548.858318805371	935.582135821193	97.537478576428	589.058192388048	847.030438900423	36.127288906649	624.747314951427	1055.198136241980	46.144178444159	618.280776646625	746.508052066118	224.755242356436	391.852380523470	803.782317705430	181.597320405502	310.226569533018	908.490154997257	189.754712389807	331.100980962146	986.610287699454	79.432521082229	299.567116465944	830.290168359354	1072.353526162805	219.794942122751	975.197670891896	860.557346739626	229.572254788938	947.592318833209	1095.262565459185	769.653980115627	1077.534316979851	869.960293792373	744.623926254949	
5	51.555428571429	721.041169839442	1014.287109645229	513.315081925844	899.014201326301	1426.039019004383	302.135395073520	1019.005073424080	1353.730252562366	451.489017154562	963.923410161682	1438.695802594851	631.336182208482	922.675274047582	1490.315431217378	453.473745569816	951.091998087481	943.002029752535	619.535733959971	921.287576958345	956.747959348742	346.287170100361	975.355910706565	736.978954180228	593.242078054913	886.742340919842	634.795232331671	654.712031852448	957.080484778149	577.039621047082	573.205276153967	950.440041748836	491.501297063181	578.398767782086	1021.765698089849	809.920335846592	389.042026888145	1012.741933289147	682.971427205774	299.886896370236	1123.447030428724	638.606261277468	370.014289191302	1154.243458061668	549.293006962151	358.703577937941	1092.206497992606	473.702396470493	349.203171030326	952.914413915514	423.168179126993	301.119929749195	949.639314727526	292.926138794451	353.512116670336	922.282465054595	404.105431376937	586.120537057700	849.747619789550	300.774678842244	646.876316866064	891.125078409572	205.937723819151	582.322948087952	757.285816564682	41.821533983100	548.897563869762	927.515615878631	97.389050769600	589.044593951590	838.966573261740	36.141689885354	624.832531591470	1047.166330291493	45.855961549676	618.313338875439	765.386293638801	216.649376492028	392.417668861208	823.950588549467	176.230584336615	310.227366843682	928.463829874773	188.726758057598	330.550766307662	1011.030614380260	81.785918074132	298.037584698610	826.090989851346	1071.629201098808	223.119148505778	950.272120298750	845.798355174990	231.108825770250	957.518392548036	1095.217820682001	770.478220166775	1101.537238155798	879.045779000064	740.432854436651	
6	51.566785714286	720.364450280835	1014.617681290503	514.608319690360	897.694130530385	1425.629007240918	302.332676036561	1018.689749616339	1353.364157884990	450.867428599854	965.172852523177	1438.494575224421	631.159393635075	922.572084219778	1490.115770125119	453.553238777223	950.760790214290	942.678339595732	619.269842714030	919.530622736801	956.882796725394	346.211134337247	972.434213731935	736.121790945829	592.633647566633	883.011383808397	634.720884753517	654.998430119328	952.032306473750	576.145298138294	573.209258973476	944.392294680128	490.950073544151	578.474359422479	1021.229698832590	813.407550506378	389.734442067966	1015.571992274640	686.761715623531	299.506687758250	1126.852916272855	644.532875935602	369.852462951285	1160.042602239171	556.137190565992	358.040620042503	1100.634050888519	478.708639058808	348.481138186307	963.170663771450	422.762695196553	300.898569511681	965.456660326356	292.201941113639	353.017126715781	915.893321436539	403.790525392699	586.159007632892	843.086545699293	300.716913154405	647.107395423195	883.786507868762	205.725446906489	582.337436128782	749.340218689767	41.883824565273	548.945095095615	919.553123120344	97.259739565601	589.043472118164	830.987331071331	36.167026911404	624.939049176234	1039.217781243424	45.559442838057	618.345499838657	784.568616176144	208.031922230099	392.650190925877	844.428381738859	170.419073682953	309.990600396792	948.525430288482	187.368277158364	329.867525787125	1035.557952412753	84.069484823798	296.520047446027	822.008331946389	1070.995204769389	225.928247515555	925.265120187607	833.443359213622	232.650472514288	967.193386015016	1095.307104319619	771.012590923707	1124.852013057330	889.505526302524	735.659759563776	
